<svg width="165" height="45" viewBox="0 0 165 45" fill="none" xmlns="http://www.w3.org/2000/svg">
<mask id="mask0" mask-type="alpha" maskUnits="userSpaceOnUse" x="0" y="0" width="165" height="45">
<path fill-rule="evenodd" clip-rule="evenodd" d="M0 44.5946H165V0H0V44.5946Z" fill="white"/>
</mask>
<g mask="url(#mask0)">
<path fill-rule="evenodd" clip-rule="evenodd" d="M77.5156 15.9682H78.6407C79.7447 15.9682 80.3956 15.3951 80.3956 14.3267C80.3956 13.2648 79.7447 12.6917 78.6552 12.6917H77.5156V15.9682ZM79.3416 10.7036C81.5352 10.7036 83.0212 12.1251 83.0212 14.32C83.0212 16.4991 81.4574 17.9206 79.1861 17.9206H77.5156V20.9139H74.9189V10.7036H79.3416Z" fill="#002930"/>
<path fill-rule="evenodd" clip-rule="evenodd" d="M86.409 18.8196H87.6184C89.3101 18.8196 90.2165 17.7933 90.2165 15.7552C90.2165 13.8383 89.2613 12.7976 87.6184 12.7976H86.409V18.8196ZM87.9584 10.7029C91.0438 10.7029 92.8553 12.4933 92.8553 15.7487C92.8553 19.0107 91.0373 20.9144 87.9584 20.9144H83.8123V10.7029H87.9584Z" fill="#002930"/>
<path fill-rule="evenodd" clip-rule="evenodd" d="M96.3498 15.9682H97.4749C98.5789 15.9682 99.2298 15.3951 99.2298 14.3267C99.2298 13.2648 98.5789 12.6917 97.4894 12.6917H96.3498V15.9682ZM98.1759 10.7036C100.369 10.7036 101.856 12.1251 101.856 14.32C101.856 16.4991 100.292 17.9206 98.0204 17.9206H96.3499V20.9139H93.7532V10.7036H98.1759Z" fill="#002930"/>
<path fill-rule="evenodd" clip-rule="evenodd" d="M74.9189 36.3904H77.5156V26.1802H74.9189V36.3904Z" fill="#002930"/>
<path fill-rule="evenodd" clip-rule="evenodd" d="M81.0667 36.3909V28.2741H78.2499V26.1807H86.4735V28.2741H83.6568V36.3909H81.0667Z" fill="#002930"/>
<path fill-rule="evenodd" clip-rule="evenodd" d="M86.436 33.3695H93.682V31.1404H86.436V33.3695Z" fill="#002930"/>
<path fill-rule="evenodd" clip-rule="evenodd" d="M97.3244 32.28H99.6524L98.5207 28.346H98.464L97.3244 32.28ZM100.162 34.1481H96.8224L96.1715 36.3917H93.5248L96.9567 26.1802H100.133L103.565 36.3917H100.806L100.162 34.1481Z" fill="#002930"/>
<path fill-rule="evenodd" clip-rule="evenodd" d="M103.288 31.2822C103.288 27.949 105.207 26.0032 108.249 26.0032C110.832 26.0032 112.791 27.6658 112.869 30.0794H110.371C110.244 28.8765 109.388 28.0834 108.249 28.0834C106.834 28.0834 105.935 29.2942 105.935 31.2756C105.935 33.2781 106.827 34.4876 108.256 34.4876C109.395 34.4876 110.223 33.7379 110.385 32.5417H112.883C112.763 34.9684 110.881 36.5678 108.249 36.5678C105.192 36.5678 103.288 34.6219 103.288 31.2822Z" fill="#002930"/>
<path fill-rule="evenodd" clip-rule="evenodd" d="M116.434 32.28H118.762L117.631 28.346H117.574L116.434 32.28ZM119.272 34.1481H115.932L115.282 36.3917H112.635L116.067 26.1802H119.243L122.675 36.3917H119.916L119.272 34.1481Z" fill="#002930"/>
<path fill-rule="evenodd" clip-rule="evenodd" d="M125.887 34.2964H127.096C128.788 34.2964 129.694 33.2701 129.694 31.232C129.694 29.3152 128.739 28.2744 127.096 28.2744H125.887V34.2964ZM127.436 26.1797C130.522 26.1797 132.333 27.9701 132.333 31.2255C132.333 34.4875 130.515 36.3913 127.436 36.3913H123.29V26.1797H127.436Z" fill="#002930"/>
<path fill-rule="evenodd" clip-rule="evenodd" d="M140.229 36.3909H133.231V26.1807H140.229V28.2741H135.828V30.3056H139.967V32.2159H135.828V34.2962H140.229V36.3909Z" fill="#002930"/>
<path fill-rule="evenodd" clip-rule="evenodd" d="M150.254 36.3909V30.0158H150.204L147.678 36.3909H146.192L143.673 30.0158H143.617V36.3909H141.331V26.1807H144.331L146.906 32.8522H146.963L149.54 26.1807H152.54V36.3909H150.254Z" fill="#002930"/>
<path fill-rule="evenodd" clip-rule="evenodd" d="M156.671 36.3909V32.8812L153.155 26.1807H155.942L157.972 30.4255H158.023L160.046 26.1807H162.785L159.268 32.8812V36.3909H156.671Z" fill="#002930"/>
<path fill-rule="evenodd" clip-rule="evenodd" d="M14.9983 7.35083C6.72907 7.35083 -0.000427246 14.0792 -0.000427246 22.3496C-0.000427246 30.6189 6.72907 37.3472 14.9983 37.3472C23.2676 37.3472 29.996 30.6189 29.996 22.3496C29.996 14.0792 23.2676 7.35083 14.9983 7.35083Z" fill="#00B533"/>
<path fill-rule="evenodd" clip-rule="evenodd" d="M40.0972 44.6974H30.8633L41.7773 0.000244141H51.0112L40.0972 44.6974Z" fill="#002930"/>
<path fill-rule="evenodd" clip-rule="evenodd" d="M53.5339 44.6974H44.3L55.214 0.000244141H64.4491L53.5339 44.6974Z" fill="#002930"/>
</g>
</svg>
